<svg xmlns="http://www.w3.org/2000/svg" viewBox="0 0 442.28 314.04"><defs><style>.cls-1{fill:#fff;}</style></defs><title>Asset 1</title><g id="Layer_2" data-name="Layer 2"><g id="Layer_1-2" data-name="Layer 1"><path d="M293,235.56c0,4.92.24,9.78,0,14.6-.63,10.68,1.88,21,2.63,31.56a87.67,87.67,0,0,1-1.19,19.59c-.7,4.41-4.11,7-8.7,8.19-16,4.08-32.25,4.59-48.56,4.54q-33.06-.12-66.13-1c-11.71-.3-23.39-1.44-35.09-2-3.53-.16-4.74-2.12-5.38-5-1.85-8.54.12-16.82,1.92-25.06s4-16.37,6-24.56a4.09,4.09,0,0,0,.15-2.15c-.69-2.06-7.79-6.05-10-5.76-10,1.29-15.26-3.26-15.2-13.28,0-3.47.47-6.94.67-10.42s.18-6.88-1.81-10.35c-6.08-10.6-4.27-24.07,4.92-32,5.61-4.86,6.92-9.12,3.34-15.65-2.3-4.19-3.33-9.07-5.11-13.58-1.62-4.1-3.2-8.14-.8-12.88C110,139.16,106,138.06,102,137c-16.73-4.45-31.19-13.1-43.63-24.87-4.51-4.27-7.76-10-11.11-15.36-4-6.44-7.73-13.09-11.21-19.84A104.27,104.27,0,0,0,17.4,51.81c-4.72-4.82-9.34-9.72-14-14.62C-.45,33.11-1.08,25.35,1.76,20.4,6.49,12.17,14,10.05,22.58,11.27,38.31,13.53,54.07,15.82,69.63,19c19.46,4,38.71,8.88,58.1,13.2a8,8,0,0,0,5.45-.95C156.77,16.4,181.79,5.16,209.47.62,219.25-1,228.88.8,238.31,3.05c13,3.11,26.1,6.5,37.84,13.21,8.85,5.06,17.21,11,25.89,16.35a10.8,10.8,0,0,0,5.48,1.65c16.47-.19,32.94-.39,49.4-.95,21.93-.75,43.86-1.75,65.77-2.8,7-.33,13.66-.43,17.23,7.15,3.15,6.68,3.51,13.51-1.21,19.39-16.62,20.73-32.7,42-52.25,60.12-5.57,5.16-13.12,8.48-20.22,11.63-12.58,5.59-25.64,10-39,12.1,2.78.74,6,1.24,8.93,2.45,4.13,1.7,6.47,4.93,6.24,9.65a20.9,20.9,0,0,1,0,2.24c-.83,5.08,1,8.86,4.59,12.58,6.29,6.51,3.84,17.24-4.91,23a22.68,22.68,0,0,1-6.13,2.54c-2.13.63-3.11,1.54-3.56,4-1.7,9.24-4.08,18.68-11.19,25.08-5.62,5.05-12.78,8.48-19.53,12.12C299.59,235.7,296.61,235.21,293,235.56Zm14-105.36c2.34,0,4.07.05,5.8,0,17.18-.47,33.34-5.35,49.21-11.47,9-3.5,17.27-8.11,23.68-15.78,13-15.52,26.3-30.75,39.4-46.16a48.3,48.3,0,0,0,5.89-8.16c2.06-3.84.25-6.53-4-6.59-2.49,0-5-.06-7.48,0q-35.68,1.2-71.35,2.41c-12.7.42-25.44.38-38.11,1.31a17.75,17.75,0,0,1-12.08-3.35c-18.39-12.45-38.11-22.19-59.6-28-6.32-1.71-12.94-3.33-19.41-3.3-17.91.08-34.55,5.68-50.19,14.1C158,31,147.7,37.29,137.1,43.1a13.54,13.54,0,0,1-6.76,1.21,45.11,45.11,0,0,1-8-1.52c-27.8-6.23-55.55-12.65-83.4-18.61C32,22.71,24.81,22.67,17.75,22.13c-3.05-.23-5.17,1.48-6.63,4.06s.62,4.21,2,5.81c4.3,4.86,8.54,9.8,13.13,14.39C36,56.11,43.9,67,49.07,79.83a56.51,56.51,0,0,0,8.07,14.68c15.72,19.32,35.67,31.62,60.7,34.84,4.36.57,8.73,1.1,13.94,1.75-1.09-3.15-1.86-5.36-2.63-7.57l.69-.61a23.78,23.78,0,0,1,3.08,2.64c2.8,3.35,5.43,6.85,8.22,10.2,5.22,6.28,11.86,9,19.94,7.37,7.55-1.53,15-3.37,22.57-5,1.55-.34,3.16-.41,4.75-.6l.22.93-8,4.69c7.73.43,15.27,1,22.83,1.23,6.31.19,12.66.24,19-.15s12.79-1.48,19.2-2.07c4.58-.42,9.19-.53,14.78-.83l-6.92-2.45a2.11,2.11,0,0,1,1.78-1.1c6.24-.06,12.48-.26,18.71-.06a39.49,39.49,0,0,0,20.9-4.78c8.36-4.73,17-9.5,18.44-20.82.85-6.88,1.69-13.54-1.54-20.1a6.42,6.42,0,0,1,.22-5c3.84-7.83,8.79-14.93,16.43-19.47a71,71,0,0,1,32.83-10.15c12.29-.66,24.55-1.93,36.83-2.9a28.55,28.55,0,0,1,3.69.16l.14,1.11a22.74,22.74,0,0,1-3.6,1.48c-11.63,2.58-23.24,5.37-35,7.54-10.23,1.89-20.43,3.47-28.52,10.85-7.09,6.46-13.35,13.24-14.59,23.54-.64,5.34-2.65,10.54-4.24,15.75C310.51,119.93,308.74,124.81,306.91,130.2Zm-32.75,51a32.16,32.16,0,0,0-3.12,1c-9.41,4.62-18.9,9.1-26,17.22a22.56,22.56,0,0,1-17.81,8.05,24.2,24.2,0,0,0-3.63.51A586.74,586.74,0,0,0,219,303.11c20.4,3.68,40-.23,60-3-.95-24.37-1.9-48.42-2.84-72.47l-1.18-.12c-.49,1.74-1,3.47-1.46,5.21-1.55,5.87-3,11.76-4.69,17.59-.34,1.2-1.52,2.15-2.32,3.22l-1.08-.44A33.71,33.71,0,0,1,266,235a166.7,166.7,0,0,0,5.67-19.57c1.09-5.44.91-11.12,1.3-16.69-4.55,7.51-8.25,15.14-12.58,22.38-5.22,8.75-12.28,16-20.21,22.4-2.64,2.14-5.17,2.19-7.75,0l-4.39-3.79C254.26,228.78,264.26,205.71,274.16,181.2Zm-96.11,17.2-.12.67a6.67,6.67,0,0,0,1.57.76c10.2,2,20.45,3.42,30.79,1.46,8.94-1.69,17.76-3.69,25.56-8.91a103.72,103.72,0,0,1,14.64-8.16c10.41-4.75,21.62-8.08,31.37-13.9,9.37-5.59,17.56-13.29,25.78-20.62,4.53-4,3.74-7.83-1.22-11.82-2.54,4.06-6.44,5.51-11,5.89-9.92.83-19.81,2-29.74,2.75-8.94.66-17.92.79-26.87,1.38-5,.33-10.05,1-15.05,1.73-3.68.56-7.3,1.53-10.95,2.31-7.06,1.51-14.12,3-21.17,4.53-3.69.8-5.62,2.87-5,6.93.48,3.19.6,6.44,1,9.66.83,6.54,1.84,13.07,2.58,19.62.52,4.55-.9,5.87-5.43,5.73C182.5,198.35,180.27,198.4,178.05,198.4Zm10.33,105a230.56,230.56,0,0,1,7.17-91.77l-18.77-1.28c0,.08-.31,1.16-.65,2.22-2.67,8.26-5,16.68-8.15,24.73-2.52,6.39-9.49,8.08-15.08,4.28-1.29,6.55-2.56,13-3.82,19.45-.62,3.12-2.15,6.6,1.47,8.78s6.3-.59,8.68-2.54c4.82-3.93,9.29-8.31,13.93-12.47.94-.83,2-1.49,3.06-2.23l.83.71a33.94,33.94,0,0,1-1.61,3.39c-5.74,9.31-14,15.94-23.51,20.84-7.47,3.83-11.34,9.05-10.38,17.8.32,2.9,1,4.21,3.74,4.8C159.26,303,173.37,303.8,188.38,303.38Zm23.53-.41c1.64-31.36,3.22-61.82,4.77-91.69-3.14,0-6.59.06-10,0-5.86-.11-5.82-.13-7.21,5.35-5.7,22.41-7.24,45.2-5.95,68.2.29,5.16,1.77,10.26,2.69,15.38.51,2.81,2.24,4.15,5,3.92C205,303.81,208.8,303.31,211.91,303ZM129.33,139.3c-4,3.35-5.07,7-2.1,12.17a143.18,143.18,0,0,0,10.59,16.28,63.63,63.63,0,0,0,39.09,24.4c2.36.48,4.82.54,7.73.85-.24-2.61-.33-4.58-.6-6.52-1-7.64-2.27-15.27-3.16-22.93-.7-5.93,2.94-10.86,8.82-12.54,2-.58,4-1.09,6-1.63a32.15,32.15,0,0,0-17.45,1,.74.74,0,0,0-.31.21c-2,3.09-4.91,2.39-7.64,1.5a31.19,31.19,0,0,0-19.82.06,6.75,6.75,0,0,1-5.24-.47C139.85,147.81,134.72,143.53,129.33,139.3Zm171.4,26.23-.85-.51c-1.22,1-2.37,2.14-3.68,3-8.23,5.74-11.93,13.61-11.52,23.63.05,1.33-1.33,2.71-2,4.08-.57,1.11-1.83,2.48-1.55,3.31,2,6,3.91,12.06,6.77,17.63,2.41,4.69,7,6.1,11.44,4.84,10.16-2.89,20.75-16.67,19.64-26.49-4.34-1.31-7.78-.57-10.5,3.56-1.9,2.88-4.58,5.26-6.9,7.86l-1.26-.55c-1.32-6.66-2.72-13.31-3.93-20C295,178.65,293.45,171.23,300.73,165.53Zm31.67-5.65c-3.65-3.09-6.33-6.87-11.08-4.87-5.69,2.4-9.69,7-14.19,11.58,4.7.93,6,2.38,5.31,5.74-.15.75-.79,2-1.28,2-2.57.21-5.16.1-8.1.1-2.66,7.08-.36,14.14,1.22,21.2,2-1.92,3.65-4.08,5.79-5.32,4.15-2.41,8.66-4.18,12.88-6.47,3.52-1.91,6.89-4,12-1.48,0-4.33,1.14-8.48-.33-11.23-1.37-2.57-5.52-3.64-8.73-5.55Zm-181,54.69a6.08,6.08,0,0,0,.69-1.79c.57-6.58,1.16-13.17,1.51-19.77,0-.88-1-2.14-1.92-2.69-4.55-2.82-9.24-5.42-13.81-8.21-3.18-2-6.15-.7-6.6,3a11.27,11.27,0,0,0,.23,4.45C134.73,200.54,139.79,210.12,151.36,214.57Zm7-21.66c-.25,9.74-.44,18.9-.76,28.05a76.66,76.66,0,0,1-.88,9.08,71,71,0,0,1-1.92,7.14c15.59-10.35,17.93-24.66,15.7-41.06Zm-10.51,40.7,5.6-9.93c-6.69-3.9-10.8-11.69-19.92-10.21,0-2.65.66-5.08-.12-6.87-2.49-5.73-5.52-11.22-8.34-16.8-3,6.2-4.87,13.44-.81,19.78C130.14,218.79,137.93,226.62,147.82,233.61Zm-23.61-13c-.69,4.28-1.65,8.27-1.82,12.28-.07,1.72,1.14,4.49,2.46,5s4.26-.38,5.45-1.64c1.73-1.83,2.8-4.58.85-7.14C129.07,226.33,126.8,223.73,124.21,220.57ZM148.47,240c-3.76-2.18-6.9-4-10.05-5.8l-.73.71c1.19,2.46,2.39,4.91,3.55,7.27Z"/><path class="cls-1" d="M306.91,130.2c1.83-5.39,3.6-10.27,5.12-15.22,1.59-5.21,3.6-10.41,4.24-15.75,1.24-10.3,7.5-17.08,14.59-23.54,8.09-7.38,18.29-9,28.52-10.85,11.72-2.17,23.33-5,35-7.54a22.74,22.74,0,0,0,3.6-1.48l-.14-1.11a28.55,28.55,0,0,0-3.69-.16c-12.28,1-24.54,2.24-36.83,2.9A71,71,0,0,0,324.45,67.6c-7.64,4.54-12.59,11.64-16.43,19.47a6.42,6.42,0,0,0-.22,5c3.23,6.56,2.39,13.22,1.54,20.1-1.41,11.32-10.08,16.09-18.44,20.82a39.49,39.49,0,0,1-20.9,4.78c-6.23-.2-12.47,0-18.71.06a2.11,2.11,0,0,0-1.78,1.1l6.92,2.45c-5.59.3-10.2.41-14.78.83-6.41.59-12.79,1.69-19.2,2.07s-12.66.34-19,.15c-7.56-.23-15.1-.8-22.83-1.23l8-4.69-.22-.93c-1.59.19-3.2.26-4.75.6-7.53,1.63-15,3.47-22.57,5-8.08,1.63-14.72-1.09-19.94-7.37-2.79-3.35-5.42-6.85-8.22-10.2a23.78,23.78,0,0,0-3.08-2.64l-.69.61c.77,2.21,1.54,4.42,2.63,7.57-5.21-.65-9.58-1.18-13.94-1.75-25-3.22-45-15.52-60.7-34.84a56.51,56.51,0,0,1-8.07-14.68C43.9,67,36,56.11,26.28,46.39,21.69,41.8,17.45,36.86,13.15,32c-1.41-1.6-3.56-3.11-2-5.81s3.58-4.29,6.63-4.06c7.06.54,14.26.58,21.14,2.05,27.85,6,55.6,12.38,83.4,18.61a45.11,45.11,0,0,0,8,1.52,13.54,13.54,0,0,0,6.76-1.21C147.7,37.29,158,31,168.67,25.25c15.64-8.42,32.28-14,50.19-14.1,6.47,0,13.09,1.59,19.41,3.3,21.49,5.79,41.21,15.53,59.6,28A17.75,17.75,0,0,0,310,45.78c12.67-.93,25.41-.89,38.11-1.31q35.67-1.17,71.35-2.41c2.49-.08,5-.05,7.48,0,4.25.06,6.06,2.75,4,6.59A48.3,48.3,0,0,1,425,56.79C411.9,72.2,398.57,87.43,385.6,103c-6.41,7.67-14.64,12.28-23.68,15.78-15.87,6.12-32,11-49.21,11.47C311,130.25,309.25,130.2,306.91,130.2ZM300.5,92.59a38.62,38.62,0,0,0-1.22-4c-5.34-12-13.45-20.67-26.78-23.89-9.72-2.35-20.58,1.56-25.56,10.21-.77,1.34-.73,3.15-1.07,4.75l1,.4c6.93-4.52,13.15-10.21,22.33-10.2,7.59,0,17.64,5.14,20.33,11.94-1-.81-1.71-1.46-2.49-2.06a30.23,30.23,0,0,0-25.67-6C248.15,76.4,238.69,92,237.05,101.11c-.58,3.25-.74,7.57.93,10A18.55,18.55,0,0,0,251,119.07a55.83,55.83,0,0,0,31.29-4.65c8.62-4,14.74-9.82,13.87-20.37a5.25,5.25,0,0,1,.42-1.68ZM171.55,121.23c7,.34,13.15-1.77,19-5.59,5.12-3.34,6.82-7.85,5.65-13.45-2.68-12.82-9.36-22.64-22.42-26.47-12.2-3.58-27.21,1.78-34.75,11.94a15.11,15.11,0,0,0-2.52,6.44c-1.15,7.26,2.07,12.9,7.46,17.34C152,118,161.27,121.05,171.55,121.23ZM38.7,32.19l-.55,1a14.85,14.85,0,0,0,2.43,2.21c2.05,1.18,4.18,2.22,6.32,3.22,16,7.52,32.18,14.69,48,22.63,12.15,6.12,20.89,15.51,23.74,29.47,1.52,7.42,3.26,14.8,5.1,22.14.28,1.13,1.64,2,2.5,3a39.45,39.45,0,0,0,1.92-3.78,3.4,3.4,0,0,0-.17-1.84,39.51,39.51,0,0,1,.13-19.94c1.56-5.71,1.26-11.2-1.81-16.56a41.34,41.34,0,0,0-22.66-19.1C83.11,47.34,62.56,40.19,42,33,40.94,32.63,39.81,32.46,38.7,32.19Zm153,51.44.94-.89a15.55,15.55,0,0,0-.47-3.15c-2.91-8-15.19-16-23.52-14.91a115.19,115.19,0,0,0-17.78,3.93c-10.54,3.18-15.42,12.3-20.67,21.16,2.42-.46,4.8-1.16,6.43-2.67,2.45-2.27,4.25-5.22,6.54-7.68,7.61-8.2,17-10.86,27.82-8.44,6,1.34,10.93,4.63,15.3,8.93C187.86,81.43,189.92,82.41,191.74,83.63Zm25.72,29.78.62.89c1.86,0,3.74.15,5.59,0,4.73-.45,6.87-2.47,7.49-6.81s-1.23-7.83-5.31-9.18c-2.91-1-6.08-1.09-9.1-1.72-4.14-.86-6.86,1-9.17,4.23-5.84,8-4.31,12.14,5.44,14,1.12.21,2.4-.51,3.61-.8a30.13,30.13,0,0,0-2-3.55c-.41-.53-1.43-.57-1.92-1.08-1-1.06-2.77-2.39-2.64-3.41A6,6,0,0,1,212.9,102c3.89-2,7.79-1,11.32,1.2,2.89,1.79,2.72,3.4-.09,5.27C221.83,110,219.68,111.75,217.46,113.41ZM177.35,43.74c2,1.63,3.66,3.07,5.42,4.42,6.75,5.18,13.13,10.65,17.44,18.23.95,1.66,3.24,2.53,4.91,3.76-.12-2.14.43-4.64-.48-6.37-4.41-8.44-11.18-14.88-18.7-20.54C183.4,41.33,180.57,41.62,177.35,43.74ZM238.9,136c-8.76-8.94-35.61-10-41.34-1.78,5.53,0,10.59-.27,15.61.07,7,.48,14.19-.71,21,2.35C235.14,137.1,236.72,136.33,238.9,136ZM213.52,42.2c.92,8,1.66,15.1,2.63,22.14.1.78,1.36,1.7,2.25,2,.44.12,1.63-1.06,1.86-1.83,2-7.07.39-13.7-2.91-20C216.87,43.57,215.31,43.23,213.52,42.2Zm34.81,6.28c-1.13-2-1.79-3.25-2.46-4.47-1,.69-2.62,1.14-3,2.09-2.58,6.15-4.94,12.4-7.25,18.66a1.64,1.64,0,0,0,2.81,1.68C241.81,60.47,245.08,54.42,248.33,48.48Z"/><path class="cls-1" d="M274.16,181.2c-9.9,24.51-19.9,47.58-46.09,58.51l4.39,3.79c2.58,2.2,5.11,2.15,7.75,0,7.93-6.4,15-13.65,20.21-22.4,4.33-7.24,8-14.87,12.58-22.38-.39,5.57-.21,11.25-1.3,16.69A166.7,166.7,0,0,1,266,235a33.71,33.71,0,0,0-.57,18.11l1.08.44c.8-1.07,2-2,2.32-3.22,1.68-5.83,3.14-11.72,4.69-17.59.46-1.74,1-3.47,1.46-5.21l1.18.12c.94,24.05,1.89,48.1,2.84,72.47-20,2.77-39.62,6.68-60,3A586.74,586.74,0,0,1,223.58,208a24.2,24.2,0,0,1,3.63-.51A22.56,22.56,0,0,0,245,199.42c7.12-8.12,16.61-12.6,26-17.22A32.16,32.16,0,0,1,274.16,181.2Z"/><path class="cls-1" d="M178.05,198.4c2.22,0,4.45-.05,6.68,0,4.53.14,6-1.18,5.43-5.73-.74-6.55-1.75-13.08-2.58-19.62-.4-3.22-.52-6.47-1-9.66-.6-4.06,1.33-6.13,5-6.93,7.05-1.54,14.11-3,21.17-4.53,3.65-.78,7.27-1.75,10.95-2.31,5-.76,10-1.4,15.05-1.73,8.95-.59,17.93-.72,26.87-1.38,9.93-.73,19.82-1.92,29.74-2.75,4.6-.38,8.5-1.83,11-5.89,5,4,5.75,7.78,1.22,11.82-8.22,7.33-16.41,15-25.78,20.62-9.75,5.82-21,9.15-31.37,13.9a103.72,103.72,0,0,0-14.64,8.16c-7.8,5.22-16.62,7.22-25.56,8.91-10.34,2-20.59.52-30.79-1.46a6.67,6.67,0,0,1-1.57-.76Z"/><path class="cls-1" d="M188.38,303.38c-15,.42-29.12-.34-43.09-3.29-2.76-.59-3.42-1.9-3.74-4.8-1-8.75,2.91-14,10.38-17.8,9.54-4.9,17.77-11.53,23.51-20.84a33.94,33.94,0,0,0,1.61-3.39l-.83-.71c-1,.74-2.12,1.4-3.06,2.23-4.64,4.16-9.11,8.54-13.93,12.47-2.38,1.95-5.16,4.66-8.68,2.54s-2.09-5.66-1.47-8.78c1.26-6.45,2.53-12.9,3.82-19.45,5.59,3.8,12.56,2.11,15.08-4.28,3.19-8.05,5.48-16.47,8.15-24.73.34-1.06.63-2.14.65-2.22l18.77,1.28A230.56,230.56,0,0,0,188.38,303.38Z"/><path class="cls-1" d="M211.91,303c-3.11.34-6.91.84-10.73,1.15-2.76.23-4.49-1.11-5-3.92-.92-5.12-2.4-10.22-2.69-15.38-1.29-23,.25-45.79,5.95-68.2,1.39-5.48,1.35-5.46,7.21-5.35,3.44.07,6.89,0,10,0C215.13,241.15,213.55,271.61,211.91,303Z"/><path class="cls-1" d="M129.33,139.3c5.39,4.23,10.52,8.51,15.95,12.38a6.75,6.75,0,0,0,5.24.47,31.19,31.19,0,0,1,19.82-.06c2.73.89,5.6,1.59,7.64-1.5a.74.74,0,0,1,.31-.21,32.15,32.15,0,0,1,17.45-1c-2,.54-4,1.05-6,1.63-5.88,1.68-9.52,6.61-8.82,12.54.89,7.66,2.12,15.29,3.16,22.93.27,1.94.36,3.91.6,6.52-2.91-.31-5.37-.37-7.73-.85a63.63,63.63,0,0,1-39.09-24.4,143.18,143.18,0,0,1-10.59-16.28C124.26,146.27,125.31,142.65,129.33,139.3Z"/><path class="cls-1" d="M300.73,165.53c-7.28,5.7-5.69,13.12-4.37,20.42,1.21,6.68,2.61,13.33,3.93,20l1.26.55c2.32-2.6,5-5,6.9-7.86,2.72-4.13,6.16-4.87,10.5-3.56,1.11,9.82-9.48,23.6-19.64,26.49-4.44,1.26-9-.15-11.44-4.84-2.86-5.57-4.74-11.67-6.77-17.63-.28-.83,1-2.2,1.55-3.31.7-1.37,2.08-2.75,2-4.08-.41-10,3.29-17.89,11.52-23.63,1.31-.91,2.46-2,3.68-3Z"/><path class="cls-1" d="M332.4,159.88l-6.5,5.7c3.21,1.91,7.36,3,8.73,5.55,1.47,2.75.33,6.9.33,11.23-5.12-2.51-8.49-.43-12,1.48-4.22,2.29-8.73,4.06-12.88,6.47-2.14,1.24-3.75,3.4-5.79,5.32-1.58-7.06-3.88-14.12-1.22-21.2,2.94,0,5.53.11,8.1-.1.49,0,1.13-1.25,1.28-2,.65-3.36-.61-4.81-5.31-5.74,4.5-4.55,8.5-9.18,14.19-11.58C326.07,153,328.75,156.79,332.4,159.88Z"/><path class="cls-1" d="M151.36,214.57c-11.57-4.45-16.63-14-19.9-25a11.27,11.27,0,0,1-.23-4.45c.45-3.75,3.42-5,6.6-3,4.57,2.79,9.26,5.39,13.81,8.21.89.55,2,1.81,1.92,2.69-.35,6.6-.94,13.19-1.51,19.77A6.08,6.08,0,0,1,151.36,214.57Z"/><path class="cls-1" d="M158.33,192.91l12.14,3.21c2.23,16.4-.11,30.71-15.7,41.06a71,71,0,0,0,1.92-7.14,76.66,76.66,0,0,0,.88-9.08C157.89,211.81,158.08,202.65,158.33,192.91Z"/><path class="cls-1" d="M147.82,233.61c-9.89-7-17.68-14.82-23.59-24-4.06-6.34-2.23-13.58.81-19.78,2.82,5.58,5.85,11.07,8.34,16.8.78,1.79.12,4.22.12,6.87,9.12-1.48,13.23,6.31,19.92,10.21Z"/><path class="cls-1" d="M124.21,220.57c2.59,3.16,4.86,5.76,6.94,8.5,1.95,2.56.88,5.31-.85,7.14-1.19,1.26-4,2.2-5.45,1.64s-2.53-3.28-2.46-5C122.56,228.84,123.52,224.85,124.21,220.57Z"/><path d="M300.5,92.59l-3.89-.22a5.25,5.25,0,0,0-.42,1.68c.87,10.55-5.25,16.34-13.87,20.37A55.83,55.83,0,0,1,251,119.07,18.55,18.55,0,0,1,238,111.12c-1.67-2.44-1.51-6.76-.93-10,1.64-9.14,11.1-24.71,24.37-27.39a30.23,30.23,0,0,1,25.67,6c.78.6,1.52,1.25,2.49,2.06-2.69-6.8-12.74-11.93-20.33-11.94-9.18,0-15.4,5.68-22.33,10.2l-1-.4c.34-1.6.3-3.41,1.07-4.75,5-8.65,15.84-12.56,25.56-10.21,13.33,3.22,21.44,11.92,26.78,23.89A38.62,38.62,0,0,1,300.5,92.59Z"/><path d="M171.55,121.23c-10.28-.18-19.6-3.23-27.58-9.79-5.39-4.44-8.61-10.08-7.46-17.34A15.11,15.11,0,0,1,139,87.66c7.54-10.16,22.55-15.52,34.75-11.94,13.06,3.83,19.74,13.65,22.42,26.47,1.17,5.6-.53,10.11-5.65,13.45C184.7,119.46,178.55,121.57,171.55,121.23Z"/><path d="M38.7,32.19c1.11.27,2.24.44,3.31.81,20.55,7.19,41.1,14.34,61.61,21.61a41.34,41.34,0,0,1,22.66,19.1c3.07,5.36,3.37,10.85,1.81,16.56a39.51,39.51,0,0,0-.13,19.94,3.4,3.4,0,0,1,.17,1.84,39.45,39.45,0,0,1-1.92,3.78c-.86-1-2.22-1.84-2.5-3-1.84-7.34-3.58-14.72-5.1-22.14-2.85-14-11.59-23.35-23.74-29.47-15.79-7.94-32-15.11-48-22.63-2.14-1-4.27-2-6.32-3.22a14.85,14.85,0,0,1-2.43-2.21Z"/><path d="M191.74,83.63c-1.82-1.22-3.88-2.2-5.41-3.72C182,75.61,177,72.32,171,71c-10.8-2.42-20.21.24-27.82,8.44-2.29,2.46-4.09,5.41-6.54,7.68-1.63,1.51-4,2.21-6.43,2.67,5.25-8.86,10.13-18,20.67-21.16a115.19,115.19,0,0,1,17.78-3.93c8.33-1.11,20.61,7,23.52,14.91a15.55,15.55,0,0,1,.47,3.15Z"/><path d="M217.46,113.41c2.22-1.66,4.37-3.41,6.67-4.94,2.81-1.87,3-3.48.09-5.27-3.53-2.19-7.43-3.22-11.32-1.2a6,6,0,0,0-2.85,3.92c-.13,1,1.6,2.35,2.64,3.41.49.51,1.51.55,1.92,1.08a30.13,30.13,0,0,1,2,3.55c-1.21.29-2.49,1-3.61.8-9.75-1.83-11.28-6-5.44-14,2.31-3.18,5-5.09,9.17-4.23,3,.63,6.19.76,9.1,1.72,4.08,1.35,5.91,4.93,5.31,9.18s-2.76,6.36-7.49,6.81c-1.85.18-3.73,0-5.59,0Z"/><path d="M177.35,43.74c3.22-2.12,6.05-2.41,8.59-.5,7.52,5.66,14.29,12.1,18.7,20.54.91,1.73.36,4.23.48,6.37-1.67-1.23-4-2.1-4.91-3.76-4.31-7.58-10.69-13-17.44-18.23C181,46.81,179.34,45.37,177.35,43.74Z"/><path d="M238.9,136c-2.18.33-3.76,1.1-4.78.64-6.76-3.06-14-1.87-21-2.35-5-.34-10.08-.07-15.61-.07C203.29,126,230.14,127.06,238.9,136Z"/><path d="M213.52,42.2c1.79,1,3.35,1.37,3.83,2.28,3.3,6.28,4.94,12.91,2.91,20-.23.77-1.42,2-1.86,1.83-.89-.25-2.15-1.17-2.25-2C215.18,57.3,214.44,50.23,213.52,42.2Z"/><path d="M248.33,48.48c-3.25,5.94-6.52,12-9.92,18a1.64,1.64,0,0,1-2.81-1.68c2.31-6.26,4.67-12.51,7.25-18.66.4-1,2-1.4,3-2.09C246.54,45.23,247.2,46.44,248.33,48.48Z"/></g></g></svg>